<svg xmlns="http://www.w3.org/2000/svg" width="161.49905mm" height="209.12462mm" viewBox="0 0 161.49905 209.12462"><path d="M-215.1 301.615c-.808-.807-.345-1.329 2.438-2.753 2.37-1.212 2.845-1.58 3.655-2.823 1.4-2.15 4.38-5.758 5.621-6.805.604-.51 1.663-1.558 2.353-2.33a103.86 103.86 0 0 1 2.787-2.958c2.819-2.864 4.459-4.669 4.461-4.91.001-.132.629-.97 1.394-1.864.765-.894 1.39-1.85 1.39-2.123 0-.273.268-.837.595-1.252.326-.415.656-1.31.733-1.99.115-1.018.01-1.422-.594-2.294-.403-.582-.733-1.262-.733-1.511 0-.25-.36-.71-.798-1.022-.693-.494-.816-.795-.948-2.318-.145-1.686-.863-3.667-1.738-4.8-.23-.297-.418-.806-.418-1.13 0-.325-.184-.834-.41-1.132-.224-.297-.412-.744-.417-.992-.005-.249-.242-1.19-.527-2.09-.8-2.531-.998-4.96-.448-5.51.247-.247.604-.449.794-.449.19 0 .715-.389 1.165-.864.45-.475 1.1-.974 1.445-1.108.502-.195.628-.461.628-1.331 0-1.166-.502-1.824-1.191-1.56-.652.25-.874-.402-.338-.994.415-.459.462-1.04.363-4.51-.088-3.054-.225-4.194-.59-4.877-.497-.935-.664-3.835-.235-4.1.131-.081 1.73-.282 3.553-.447 1.823-.165 4.162-.498 5.197-.74 1.035-.242 2.277-.36 2.76-.264.655.131 1.178-.001 2.069-.523.806-.473 1.607-.698 2.479-.698.708 0 1.627-.17 2.04-.38.414-.208 1.756-.457 2.983-.554 1.226-.096 2.73-.359 3.344-.584.613-.224 1.746-.414 2.518-.42.771-.007 2.116-.264 2.989-.57.872-.307 1.973-.558 2.447-.558.473 0 1.123-.14 1.442-.31.32-.172 1.493-.425 2.607-.563 1.115-.138 2.381-.437 2.815-.663.433-.226 1.105-.412 1.493-.413.387 0 .951-.174 1.254-.385.302-.21 1.49-.52 2.64-.687 3.001-.437 8.566-1.378 10.032-1.698.69-.15 1.881-.283 2.648-.295.766-.012 1.707-.201 2.09-.42.383-.22 1.073-.404 1.533-.412.46-.007 1.84-.26 3.065-.564 1.227-.302 2.735-.552 3.352-.554.618-.002 1.37-.173 1.672-.381.303-.209 1.659-.467 3.014-.574 1.355-.108 2.798-.33 3.205-.496.408-.165 2.622-.396 4.921-.514 2.789-.143 4.526-.362 5.217-.659 1.513-.65 3.463-.592 3.84.113.165.306.577.557.916.557.626 0 3.546-.89 5.076-1.548.46-.198 1.32-.44 1.91-.538 2.122-.354 3.573-1.408 2.689-1.955-.374-.23-.354-1.42.034-2.041.241-.386.21-.702-.14-1.376-.63-1.218-.57-2.181.168-2.698.863-.604 1.04-.552 1.373.402.164.47.493.838.752.84.253.003.647.123.875.267.344.218.255.427-.525 1.232-.56.577-.874 1.137-.78 1.385.089.229.016.8-.161 1.268-.462 1.223-.04 1.559 1.41 1.124.999-.3 1.298-.265 2.667.302 1.783.739 2.025 1.17 2.213 3.932.08 1.157.39 2.425.827 3.38.385.842.792 2.204.903 3.028.112.823.376 1.835.588 2.249.212.414.386 1.12.386 1.568 0 .449.18.965.4 1.148.22.183.487.73.593 1.219.106.487.365 1.133.575 1.436.21.302.383.777.383 1.056 0 .278.25.998.557 1.599.94 1.841.63 5.744-.438 5.524-.326-.067-.456-.511-.515-1.762-.088-1.862-.757-4.102-1.741-5.827-1.38-2.42-2.038-3.96-2.041-4.776-.001-.468-.389-1.91-.86-3.205-.472-1.296-.919-2.67-.993-3.052-.862-4.43-1.021-4.825-2.204-5.461-.839-.452-1.085-.47-2.14-.151-2.333.703-5.391 1.428-6.692 1.584-.726.088-1.483.322-1.682.521-.679.679-3.056 1.556-4.216 1.556-.637 0-1.44.197-1.784.439-.344.241-1.344.503-2.222.58-.877.079-2.068.32-2.646.537-.577.217-1.393.396-1.811.399-.418.002-1.026.159-1.35.348-2.002 1.17-2.908 1.547-4.14 1.727-.761.112-2.009.519-2.771.905-1.657.84-4.032 1.694-5.685 2.045-1.488.316-3.462.971-4.93 1.637-2.79 1.265-3.182 1.416-3.7 1.416-.302 0-1.513.438-2.69.975-1.177.536-2.381.975-2.675.975-.295 0-.946.25-1.448.557-.502.306-1.116.556-1.365.557-.476.001-2.658.865-3.91 1.548-.407.222-.94.404-1.186.404-.245 0-.913.25-1.485.557-.572.307-1.238.558-1.479.558-.241 0-.682.184-.98.409-.297.225-.854.414-1.237.42-.383.006-1.033.186-1.444.4a7.69 7.69 0 0 1-1.584.574c-.46.1-.985.363-1.167.583-.183.22-.491.4-.686.4-.194 0-.9.249-1.568.552-.668.303-1.613.554-2.1.557-.487.003-1.69.426-2.673.938-.984.512-2.174 1.009-2.645 1.103-.472.094-1.464.543-2.204.998-1.497.918-4.047 1.984-4.75 1.984-.25 0-.653.17-.895.378s-.941.51-1.554.671c-1.37.36-2.926.899-3.484 1.206-.23.127-1.17.677-2.09 1.223-2.388 1.417-2.379 1.413-3.793 2.062-.706.325-1.396.59-1.533.59-.136-.001-1.126.423-2.199.942-1.073.519-2.306 1.086-2.741 1.26-.764.306-.787.372-.664 1.915.126 1.585 1.077 4.675 1.6 5.198.15.15.273.483.273.74s.18.617.4.8c.22.182.487.73.594 1.218.193.88.69 1.914 1.563 3.256.25.383.538 1.135.641 1.672.104.536.554 1.875 1.002 2.974.568 1.396.808 2.448.793 3.484-.014.997.17 1.847.558 2.588.668 1.273.747 2.602.198 3.352-.369.505-.391.503-.696-.068-.174-.324-.316-.91-.316-1.304 0-.393-.113-.715-.25-.715-.325 0-3.094 3.026-3.094 3.38 0 .148.375.483.834.744.46.26.832.6.83.753-.007.326-3.037 3.147-4.45 4.144a76.122 76.122 0 0 1-2.788 1.815c-1.668 1.039-4.857 4.024-5.852 5.478-1.596 2.332-4.292 5.545-6.544 7.801-1.415 1.418-1.949 1.755-3.415 2.16-2.098.579-1.888.576-2.437.027zm26.468-56.4c.614-.296 1.31-.543 1.547-.548a1.22 1.22 0 0 0 .726-.304c.756-.755 6.69-3.607 7.505-3.607.233 0 .95-.269 1.593-.598 2.866-1.463 3.27-1.632 3.909-1.632.372 0 .833-.188 1.024-.418.19-.23.478-.418.64-.418.263 0 3.926-1.687 5.812-2.677.407-.214 1.062-.388 1.456-.388.659 0 1.24-.22 4.524-1.71.63-.286 1.308-.52 1.508-.52.524 0 3.334-.826 4.314-1.268.46-.208 1.363-.512 2.008-.677.645-.165 1.248-.421 1.34-.57.093-.15.443-.272.779-.273.336-.001.987-.251 1.446-.556.46-.305 1.068-.555 1.35-.556.284 0 .848-.184 1.255-.408 1.127-.62 3.319-1.544 3.66-1.544.167 0 .582-.174.921-.387.34-.213 1.12-.475 1.732-.582.613-.108 1.969-.623 3.012-1.146 1.043-.523 2.109-.955 2.368-.96.26-.005.704-.184.986-.397.283-.214 1.003-.472 1.601-.573.598-.101 1.152-.288 1.23-.414.078-.127.675-.319 1.325-.427.65-.108 1.497-.353 1.88-.544.383-.192 1.198-.439 1.811-.55.614-.11 1.24-.301 1.394-.424.153-.122 1.533-.566 3.065-.986 1.533-.42 3.164-.925 3.623-1.12 1.78-.759 3.102-1.221 3.972-1.39.976-.19 1.172-.528.465-.8-.761-.292-1.504-.187-2.57.363-.945.487-4.672 1.21-8.834 1.71-.92.111-2.025.342-2.456.513-.432.17-1.357.31-2.057.31s-2.228.244-3.396.54c-1.168.298-3.127.743-4.353.99-1.226.246-2.731.585-3.344.753-1.592.435-2.117.497-5.853.692-1.89.1-3.586.327-3.901.525-.307.192-1.247.44-2.09.55-.844.11-1.78.373-2.083.584-.302.21-1.12.383-1.82.383-.697 0-1.543.192-1.88.428-.335.235-1.46.503-2.5.596-1.04.093-2.228.339-2.642.548-.414.208-1.166.383-1.672.388-.506.005-1.61.252-2.453.548-.843.297-1.861.543-2.264.548-.402.005-1.264.198-1.916.428-.652.23-1.67.418-2.263.418-.594 0-1.8.243-2.682.54-.882.298-2.357.629-3.276.735-.92.106-1.92.364-2.222.574-.306.211-1.248.38-2.125.38-.866 0-2.108.188-2.76.418-.651.23-2.085.418-3.186.418-2.693 0-3.048.28-2.849 2.247.698 6.869.96 8.842 1.247 9.37.181.335.33 1.046.33 1.58 0 1.193.235 1.855.656 1.843.175-.005.82-.252 1.433-.548zm119.207 25.01c-.398-.186-.74-.712-.932-1.435-.166-.627-.417-1.329-.557-1.559a5.902 5.902 0 0 1-.41-.836c-.085-.23-.335-.794-.554-1.254a8.84 8.84 0 0 1-.582-1.811c-.1-.537-.352-1.223-.559-1.526-.206-.302-.38-.992-.388-1.532-.006-.541-.204-1.485-.44-2.098-.234-.613-.497-2.43-.584-4.036-.177-3.29-.25-3.448-2.905-6.292-1.558-1.669-2.185-2.998-2.188-4.638-.002-.918-1.486-3.191-2.24-3.43-.763-.243-.684-.821.164-1.208.9-.41 1.463-.126 2.605 1.316.606.765.863 1.39.863 2.1 0 1.13 1.115 3.409 2.565 5.241 1.973 2.492 2.451 3.406 2.457 4.691.01 2.07 1.024 7.965 1.677 9.74.197.536.607 1.665.91 2.508.727 2.023 1.34 3.335 1.936 4.148.578.788.608 1.165.14 1.762-.274.348-.484.38-.978.15zm-128.67-27.443a4.91 4.91 0 0 1-1.115-.487c-1.138-.698-3.188-1.084-3.938-.743-.954.435-1.793.4-2.343-.099-.254-.229-.765-.412-1.137-.407-2.327.034-3.873.2-4.794.514-.942.321-1.17.298-2.168-.223-.614-.32-1.269-.581-1.456-.581-.55 0-5.155-4.526-5.478-5.383-.549-1.455-.364-2.95.5-4.052.437-.559.945-1.301 1.128-1.65.183-.348.888-1.146 1.568-1.772 1.226-1.13 2.082-2.462 2.082-3.24 0-.223-.384-.889-.852-1.48-1.18-1.491-1.372-2.859-.526-3.759.37-.393 1.109-.765 1.716-.862.587-.093 1.122-.259 1.19-.367.184-.3-.674-1.402-1.092-1.402-.202 0-.524-.188-.715-.418-.19-.23-.684-.418-1.097-.418-.92 0-2.12-1.205-2.36-2.37-.307-1.485.258-2.601 2.255-4.456l1.885-1.752.102-2.051c.094-1.894.049-2.101-.593-2.702-.875-.818-2.73-1.247-4.4-1.018-1.328.183-2.202-.258-2.202-1.111 0-.204-.345-.502-.766-.663-1.166-.444-2.27-1.578-2.88-2.956-.302-.683-.672-1.318-.82-1.41-.15-.092-.271-.646-.271-1.232 0-.931.165-1.2 1.316-2.143 1.654-1.356 3.48-2.6 3.824-2.607.145-.003 1.531-1.33 3.08-2.95 2.508-2.623 2.896-2.925 3.54-2.764.635.16 1.006-.102 2.986-2.103 1.243-1.257 2.474-2.647 2.735-3.09.262-.441.668-.868.903-.948.79-.269 4.852-3.891 5.384-4.801l.526-.901-.741-.282c-.864-.328-.864-1.192-.001-1.352 1.693-.314 1.621-1.318-.216-3.01-1.995-1.839-3.389-4.653-3.205-6.47.216-2.124 1.567-4.633 3.196-5.932.644-.514 1.247-1.15 1.339-1.412.093-.263 1.006-1.203 2.03-2.09 2.527-2.187 2.554-2.215 3.314-3.334.639-.942 1.2-2.256 1.786-4.186.15-.49.454-1.243.678-1.673.224-.429.408-.971.409-1.204 0-.234.44-1.091.977-1.906.537-.815.976-1.6.976-1.745 0-.562 1.404-2.972 2.691-4.619.742-.95 1.9-2.477 2.573-3.393.673-.917 1.51-1.74 1.861-1.827.387-.097.97-.733 1.486-1.623.822-1.418 2.437-3.274 3.745-4.305.35-.276.987-1.099 1.414-1.827.427-.73 1.108-1.577 1.515-1.885 2.966-2.246 3.83-3.058 4.347-4.086 1.073-2.132 3-2.991 3.522-1.57.179.485.015.837-.805 1.73a30.243 30.243 0 0 0-1.81 2.195c-.43.59-1.528 1.63-2.441 2.31-.988.736-1.73 1.52-1.831 1.934-.094.383-.361.849-.594 1.035-.233.186-.689.769-1.012 1.295-.323.526-1.152 1.409-1.842 1.96-1.938 1.55-2.226 1.879-2.962 3.377-.391.797-1.108 1.686-1.668 2.07-.54.37-1.242 1.184-1.558 1.808-.317.624-1.186 1.842-1.931 2.706-1.085 1.257-1.356 1.773-1.356 2.583 0 .794-.214 1.22-.993 1.976-1.002.973-3.184 4.911-3.186 5.75 0 .25-.177.6-.392.778-.215.178-.472.649-.572 1.046-.344 1.372-2.323 3.86-4.615 5.804-2.2 1.866-3.515 3.353-5.5 6.213-.716 1.032-.906 1.587-.906 2.647 0 1.173.121 1.453.966 2.232 1.75 1.615 3.214 3.832 3.214 4.865 0 .679.235 1.182.83 1.777.725.725.999.82 2.155.745l1.325-.085.325-1.394c.364-1.562 1.385-3.762 1.745-3.762.13 0 .856-.494 1.615-1.098.793-.631 1.96-1.244 2.746-1.442.752-.19 1.684-.51 2.071-.712.75-.39 2.438-.49 3.22-.19.26.1.629.552.82 1.005.274.653.686.94 1.989 1.384 1.417.484 2.12.54 5.11.416 3.564-.149 4.338-.026 5.274.835.298.274.869.725 1.27 1.003 1.092.757 1.608 1.691 1.397 2.532-.244.975-1.592 1.028-2.127.085-.866-1.529-1.483-2.38-1.921-2.654-.505-.316-9.625-.525-9.922-.228-.097.097.042.416.308.71.468.517 1.05 3.467.808 4.1-.205.54.708 1.181 1.937 1.36 3.22.47 14.612-.331 17.482-1.228.536-.167 2.044-.304 3.352-.304 1.636 0 2.56-.127 2.96-.408.452-.316 1.548-.406 4.87-.4 2.358.005 4.663.008 5.123.008.46-.001 2.467-.084 4.46-.184 2.94-.148 3.723-.106 4.155.221.65.492.435 1.231-.456 1.568-.606.23-4.836.587-8.995.761-1.073.045-4.27.28-7.106.52-2.836.242-5.534.372-5.996.291-.56-.099-1.209.052-1.95.455-.792.43-1.954.681-4.038.872-3.471.319-4.065.324-7.524.061-3.707-.28-4.108-.272-5.992.125-2.313.487-2.392.546-3.044 2.283-.665 1.769-1.545 3.006-3.885 5.462-1.738 1.824-2.781 2.216-3.522 1.324-.198-.239-.805-.418-1.413-.418-1.3 0-2.29-.945-3.46-3.3-.431-.867-.974-1.798-1.207-2.068-.27-.314-.468-1.283-.549-2.677-.118-2.035-.18-2.218-.902-2.644-1.178-.696-3.105-.603-3.847.186-.333.355-.605.828-.605 1.052 0 .487-2.18 2.6-3.826 3.708-.648.436-1.588 1.224-2.09 1.75-.502.527-1.541 1.61-2.31 2.406a64.744 64.744 0 0 0-2.88 3.259c-1.74 2.124-5.606 5.723-6.43 5.985-.316.1-.702.103-.857.007-.156-.096-.368.052-.472.33-.219.589-2.292 3.188-2.803 3.515-.466.298-.44.653.139 1.893.385.824.69 1.084 1.449 1.23.528.101 1.215.362 1.525.58.31.216 1.105.394 1.767.394.662 0 1.695.251 2.296.558.6.306 1.292.557 1.536.557s.623.43.843.956c.22.526.527 1.035.682 1.131.156.097.283 1.102.283 2.235 0 1.844-.09 2.194-.867 3.345-.477.706-1.26 1.685-1.742 2.175a51.56 51.56 0 0 0-1.533 1.638l-.66.746.609.854c.397.558.847.854 1.296.854.378 0 1.022.22 1.431.488 1.15.754 2.572 1.228 4.288 1.43.863.103 1.773.357 2.024.565.251.208 1.176.456 2.055.55 1.397.15 1.61.253 1.69.815.05.354-.11.95-.355 1.324-.388.593-.651.68-2.042.671-.877-.005-2.58-.185-3.781-.4-2.36-.42-2.777-.364-3.737.5-.774.697-.796 1.418-.07 2.342.708.9.701 1.578-.04 3.835-.513 1.564-.859 2.063-2.467 3.559-2.22 2.065-2.611 2.715-2.358 3.915.242 1.144 1.08 2.047 2.26 2.436.513.17.934.42.934.557 0 .137.68.571 1.513.965.832.394 1.562.862 1.62 1.04.077.228.415.178 1.149-.17.967-.46 1.198-.464 3.325-.07 1.257.232 3.573.48 5.146.55 2.149.096 3.131.269 3.947.694.598.312 1.528.65 2.068.75.54.102 1.196.42 1.457.71.915 1.01-.518 1.675-2.517 1.167zm-22.446-51.632c0-.154-.258-.28-.574-.28-.316 0-.496.126-.402.28.095.153.353.278.574.278.221 0 .402-.125.402-.278zm32.1-9.32c2.032-.617 2.508-1.26 4.027-5.45.544-1.502.657-2.353.658-4.966 0-1.734-.13-3.4-.291-3.7-.161-.301-.78-.742-1.374-.98-.753-.301-1.169-.682-1.368-1.254-.25-.716-.387-.8-1.065-.65-2.547.56-5.655 2.676-5.655 3.85 0 .334-.216.917-.48 1.294-.351.501-.51 1.418-.59 3.399-.118 2.938.233 4.078 1.76 5.725.375.404.833 1.118 1.018 1.586.677 1.712 1.062 1.843 3.36 1.146zm21.915 37.344c-1.34-.68-1.363-1.29-.097-2.692.75-.83.958-1.292.93-2.057-.043-1.149.792-2.207 2.213-2.802.498-.209.906-.52.906-.691 0-.541 1.417-2.196 2.045-2.387.331-.1.799-.355 1.039-.565.769-.673 6.67-.678 6.67-.005 0 .23.437.452 1.091.557.6.096 1.144.332 1.209.523.094.28.31.28 1.088.001.534-.192 1.292-.348 1.683-.348 1.082 0 1.466-.634.768-1.267-.505-.456-.71-.477-1.815-.181-1.876.501-3.062.406-4.59-.369-1.22-.617-1.385-.806-1.385-1.58 0-.484-.202-1.103-.45-1.376-.452-.5-.727-3.09-.462-4.343.076-.36.729-.994 1.566-1.523 1.614-1.02 1.933-1.407 2.133-2.582.106-.626.337-.87.979-1.036.461-.12 1.435-.848 2.163-1.62 1.025-1.086 1.515-1.402 2.17-1.402.467 0 1.374-.273 2.018-.606 2.266-1.175 2.653-1.345 3.06-1.345.226 0 .567-.188.757-.418.448-.54 2.196-.552 2.401-.017.362.942-1.044 1.81-4.302 2.654-.51.132-1.146.439-1.416.683-.269.243-.95.442-1.512.442-.72 0-1.023.123-1.023.415 0 .58 3.563.544 4.223-.043.388-.345.565-.352 1.115-.042 2.314 1.3 2.47 2.293.584 3.691-.728.54-1.522 1.173-1.765 1.406-.243.234-.822.426-1.286.426-.465 0-1.176.26-1.581.579l-.736.579-1.026-.634c-.844-.522-1.436-.637-3.324-.65-2.18-.013-2.343.03-3.165.817-.733.702-.855 1.005-.786 1.951.082 1.1.103 1.121 1.252 1.205.885.064 1.309-.055 1.742-.488.486-.486.924-.572 2.887-.572 2.252 0 2.338.024 3.205.919 1.061 1.095 1.148 2.1.28 3.272l-.61.825.628.849c.79 1.069.675 1.966-.313 2.438-.844.403-.833.372-.876 2.592-.034 1.743-.468 2.482-1.458 2.482-.364 0-.662.108-.662.24 0 .133-.47.563-1.045.956-1.007.688-1.155.709-4.05.555-1.652-.088-3.07-.267-3.152-.398-.238-.386-2.979-.254-3.737.18-.403.23-1.47.402-2.534.407-1.542.008-1.967.12-2.636.696-.439.377-.698.784-.577.906.357.355 9.97.114 10.423-.262.463-.385 3.774-.512 4.296-.165.277.184.17.402-.443.905-.739.608-1.137.677-4.737.826-6.123.253-8.733.12-9.973-.51zm17.5-4.693c.351-.351-.25-.758-1.12-.758-.503 0-1.644-.25-2.535-.557-2.155-.742-8.306-.808-9.786-.106-1.065.506-1.332.81-1.143 1.304.097.251 1.938.329 7.275.308 3.93-.015 7.219-.1 7.309-.19zm-.329-2.144c.418-.16.715-.49.715-.797 0-.437-.285-.554-1.713-.703-3.774-.395-4.37-.147-2.537 1.054 1.114.73 2.371.888 3.535.446zm-8.755-1.404c.29-.154 1.305-.363 2.256-.462 1.118-.117 1.91-.362 2.242-.694.984-.983.657-1.144-2.065-1.012-2.039.099-2.796.257-3.623.758-.991.6-1.272 1.093-.859 1.506.279.279 1.452.224 2.05-.096zm8.832-4.63c.137-.414-.774-.755-1.112-.416a.496.496 0 0 0-.067.582c.238.384 1.033.272 1.179-.166zm3.033-2.097c.073-.118-.018-.455-.202-.75-.396-.633-2.583-.982-3.78-.602-4.19 1.329-4.116 1.7.324 1.625 1.94-.033 3.585-.156 3.658-.273zm3.303-7.413c1.669-1.132 1.916-1.512 1.316-2.02-.73-.62-4.989-.343-5.375.348-.15.268-.55.49-.886.492-.338.002-.802.129-1.032.28-.354.235-.311.36.28.82.809.63 1.305.757 3.189.808 1.084.03 1.62-.125 2.508-.728zm36.57 12.007c-.445-.445-.094-1.152 1.153-2.323 2.085-1.955 3.49-3.065 3.881-3.065.516 0 3.022-1.793 4.83-3.453.851-.783 1.917-1.746 2.368-2.139 1.153-1.006 3.186-3.299 4.106-4.632.428-.62 1.08-1.41 1.447-1.756.367-.345 1.02-1.33 1.45-2.19.431-.86 1.442-2.564 2.247-3.786.897-1.362 1.463-2.527 1.463-3.01 0-.445.183-.86.418-.95.23-.088.418-.404.418-.702 0-.298.245-1.006.544-1.573.3-.567.825-1.783 1.166-2.702a65.218 65.218 0 0 1 1.546-3.685c.508-1.107.924-2.217.924-2.466 0-.25.183-.849.406-1.332.44-.955 1.141-2.862 1.572-4.282.15-.493.393-.97.54-1.061.148-.092.269-1.13.269-2.31 0-2.025.545-4.546 1.82-8.414.226-.69.412-1.704.41-2.254 0-.55.186-1.617.415-2.37.228-.752.416-1.665.418-2.03.002-.586-.092-.642-.833-.494-.733.147-.836.09-.836-.467 0-.348.14-.774.31-.945.397-.396.977-1.397 1.38-2.378.173-.422.416-.766.539-.766.123 0 .36-.345.526-.767.166-.421.42-.954.565-1.184.533-.847 1.361-2.954 1.532-3.898.097-.534.528-1.412.958-1.95 1.47-1.843 2.27-6.19 1.613-8.783-.232-.92-.475-2.25-.54-2.955-.169-1.848-1.304-3.343-3.614-4.761a182.63 182.63 0 0 1-2.492-1.57c-.808-.518-2.548-1.226-3.965-1.612-1.39-.379-3.055-.95-3.701-1.27-.656-.324-1.48-.523-1.863-.45-.801.154-.998.043-1.6-.899-.262-.408-1.018-.896-1.825-1.178-.759-.265-1.672-.735-2.03-1.045-.357-.31-1.042-.563-1.523-.563-.48 0-1.366-.251-1.967-.558-.601-.306-1.51-.557-2.021-.557-.51 0-1.275-.257-1.699-.57-.903-.668-3.55-1.353-5.337-1.381-.69-.01-1.568-.199-1.951-.418-.383-.22-1.073-.407-1.533-.418-.46-.01-1.338-.261-1.95-.557-.614-.297-1.43-.544-1.812-.55-.787-.012-3.782-1.17-4.258-1.646-.177-.177-1.248-.313-2.468-.313-1.992 0-2.17.048-2.346.627-.105.345-.35.816-.543 1.045-.194.23-.447.73-.564 1.11-.294.962-1.277 2.235-1.727 2.235-.649 0-.732-.847-.159-1.623.304-.41.72-1.212.926-1.781.337-.93.322-1.093-.142-1.605-.504-.558-.501-.587.123-1.25.847-.902.588-1.426-.817-1.65-1.19-.19-2.308.136-1.717.501.478.296.376 1.583-.173 2.188-.268.296-.691 1.058-.94 1.694-.348.89-.619 1.177-1.176 1.244l-.723.087.172-1.844c.161-1.724.134-1.854-.427-2-.692-.182-.79-.98-.18-1.486.628-.522.509-1.31-.227-1.495-.723-.181-2.591.258-2.846.67-.279.451-3.283.317-3.991-.18-.475-.332-1.437-.465-3.755-.519-1.714-.04-3.555-.156-4.091-.258-.928-.177-1.017-.123-1.812 1.109-1.977 3.063-3.24 5.823-3.4 7.43-.089.88-.331 1.741-.54 1.914-.209.174-.38.631-.38 1.017 0 .63-.216 1.202-1.561 4.107a9.13 9.13 0 0 0-.562 1.742c-.15.774-.294.906-.986.906-.923 0-1.334-.67-.836-1.362.608-.844.94-1.842.997-3.001.042-.853.291-1.424.946-2.17.488-.556.888-1.242.888-1.525 0-.282.188-.964.418-1.514.23-.55.418-1.287.42-1.637.001-1.24 1.586-4.532 2.89-6.006.516-.583.524-.668.11-1.083-.415-.415-.524-.408-1.378.09-.51.296-1.106.908-1.323 1.359-.218.45-.563.986-.767 1.19-.203.204-.37.734-.37 1.177 0 .444-.182 1.219-.404 1.722-.222.504-.478 1.5-.57 2.215-.097.753-.338 1.364-.572 1.454a.676.676 0 0 0-.405.583c0 .236-.69 1.75-1.533 3.364-.843 1.615-1.533 3.16-1.533 3.434 0 .708-1.262 1.82-1.822 1.605-.343-.132-.438-.472-.382-1.36.04-.65-.023-1.522-.142-1.936-.154-.538.028-1.507.638-3.402.469-1.457.972-2.874 1.118-3.148.515-.972 1.427-4.174 1.427-5.013 0-.944 2.056-3.987 2.694-3.987.497 0 .48 1.368-.025 1.929-.652.725-1.555 3.312-1.555 4.457 0 .59-.18 1.22-.4 1.402-.22.183-.479.691-.575 1.13-.097.439-.355.947-.576 1.13-.455.377-.543 2.093-.12 2.354.153.095.411-.18.573-.61.162-.432.62-1.474 1.018-2.317.397-.843.88-2.097 1.074-2.787.194-.69.486-1.63.649-2.09.929-2.62 1.424-4.427 1.433-5.226.021-1.961 2.416-3.339 4.723-2.718.61.165 1.235.534 1.389.821.343.64 3.64 1.302 5.055 1.014.52-.106 2.301-.31 3.958-.453 2.474-.213 3.19-.185 4.006.156.547.229 1.708.4 2.58.38 1.799-.04 2.715.18 3.455.83.396.348 1.178.459 3.43.487 2.674.033 2.978.093 3.667.717.9.814 3.006 2.18 3.362 2.18.14 0 .801.249 1.47.552.668.303 1.72.554 2.337.557.617.003 1.37.176 1.672.383.302.208 1.091.461 1.753.564.663.103 1.5.38 1.86.617.36.236 1.386.501 2.28.59.893.088 2.063.38 2.6.65.538.268 1.519.634 2.18.812.661.179 1.601.567 2.089.865.487.297 1.11.54 1.383.54.274.001.784.19 1.133.418.35.23 1.254.5 2.01.601.903.121 1.71.457 2.345.977.533.436 1.3.793 1.705.793.404 0 1.053.25 1.443.557.39.307 1.076.558 1.525.558.772 0 3.234 1.589 3.777 2.438.146.227.834.33 1.983.3 1.473-.041 1.974.077 3.077.723.866.507 1.453 1.097 1.714 1.72.274.657.579.95.987.95 1.18 0 3.026 1.53 4.704 3.901.678.958.69 1.073.69 6.45 0 4.666-.067 5.552-.455 5.992-.25.285-.545.812-.655 1.173-.11.36-.5 1.099-.869 1.64-.367.542-.794 1.455-.949 2.03-.155.574-.468 1.2-.697 1.389-.229.19-.416.585-.416.878 0 .293-.22.87-.488 1.28-.403.617-.475 1.278-.415 3.822.057 2.411-.049 3.497-.488 5.026-.308 1.072-.56 2.311-.56 2.753 0 .816-.718 3.858-1.684 7.14-.294.997-.617 2.479-.717 3.293-.101.814-.467 1.898-.813 2.408-.347.51-.722 1.35-.834 1.864-.112.515-.376 1.183-.586 1.486-.21.302-.382.94-.382 1.42 0 .516-.227 1.075-.558 1.374-.351.318-.557.858-.557 1.462 0 .536-.246 1.27-.558 1.667-.306.39-.557.864-.557 1.055 0 .19-.188.502-.418.693-.23.19-.418.708-.418 1.15 0 .442-.25 1.27-.557 1.843-.307.572-.558 1.167-.559 1.323 0 .155-.376.847-.835 1.537-.459.69-.915 1.693-1.015 2.229-.099.536-.413 1.274-.697 1.64-.285.366-.517.807-.517.982 0 .174-.37.765-.822 1.313-.451.548-1.14 1.598-1.532 2.333-.39.736-.863 1.52-1.049 1.745a7.962 7.962 0 0 0-.627.907c-1.125 1.944-4.563 5.896-6.29 7.232-.685.53-1.56 1.266-1.942 1.637-1.229 1.188-3.721 3.013-5.156 3.774-.767.407-2.179 1.428-3.138 2.268-1.742 1.527-2.04 1.694-2.39 1.344zm-46.448-99.027a.28.28 0 0 0-.279-.279.28.28 0 0 0-.279.279.28.28 0 0 0 .28.279.28.28 0 0 0 .278-.279zm24.431 97.912c-.322-.322-.202-1.359.224-1.92.225-.298.414-.855.42-1.238.005-.384.193-1.047.416-1.475.748-1.435.807-2.527.168-3.106-.359-.324-.577-.866-.577-1.429 0-.952 1.265-3.725 1.874-4.107.195-.122.355-.489.355-.814 0-.325.163-.79.363-1.031.199-.242.636-1.32.97-2.397.49-1.576.876-2.22 1.98-3.307 2.206-2.173 2.672-.985.709 1.808-2.219 3.156-4.87 8.5-4.941 9.961-.068 1.37.394 1.628.78.435.154-.475.421-1.04.595-1.254.174-.215.4-.788.504-1.273.104-.486.37-.952.59-1.037.22-.084.4-.42.4-.745 0-.326.252-.911.558-1.3.307-.39.558-.993.558-1.339s.188-.701.418-.79c.244-.093.418-.51.418-1.005 0-.464.147-.845.326-.845.18 0 .548-.2.819-.445.52-.47 1.084-.324 1.084.282 0 .2-.439.937-.975 1.64-.537.702-.976 1.507-.976 1.789 0 .282-.25.727-.557.99-.318.272-.557.822-.557 1.28 0 .775-1.168 3.21-1.695 3.536-.14.087-.256.44-.256.785 0 .345-.184.87-.41 1.168-.224.298-.412.744-.417.991-.005.248-.26.77-.567 1.159-.327.416-.557 1.13-.557 1.73 0 .596-.3 1.534-.723 2.255-.714 1.218-.957 1.411-1.32 1.048zm-28.203-2.338c-.11-.179-.04-.425.158-.547.461-.285 1.16-.02 1.025.388-.148.442-.942.549-1.183.159zm43.903-3.208c0-.532.717-1.274 1.874-1.94.732-.42 1.602-1.01 1.933-1.31.331-.299.831-.5 1.111-.446.938.18.715.95-.517 1.787-.658.446-1.26.877-1.336.958-.752.79-3.065 1.509-3.065.951zm11.546-6.84c-.197-.319.331-.793.89-.8.174-.003.458-.178.633-.388.175-.211.846-.468 1.49-.571.645-.103 1.384-.379 1.642-.613.58-.525 2.053-.407 2.053.165 0 .515-2 1.667-2.927 1.685-.383.007-.94.197-1.237.422-.636.481-2.269.545-2.544.1zm-1.41-3.775c-.29-1.154 1.226-2 2.07-1.155.55.55.385.993-.544 1.457-1.177.587-1.31.56-1.526-.302zm5.068-2.021c-.087-.14-.092-.424-.012-.633.155-.404 2.325-1.848 3.48-2.315 1.145-.464 2.305-1.328 3.436-2.56.587-.639 1.59-1.515 2.23-1.946a47.281 47.281 0 0 0 2.185-1.585c.563-.44 1.152-.72 1.308-.625.53.328-.595 1.738-2.315 2.9-.929.627-2.378 1.805-3.221 2.618-1.931 1.861-3.176 2.812-4.845 3.7-1.394.74-1.99.86-2.246.446zm-36.113-4.92c-.15-.394-.276-.927-.281-1.185-.005-.258-.19-.783-.409-1.166-.65-1.14-.522-3.061.284-4.248.387-.569.92-1.143 1.185-1.277.573-.29 2.568-.257 3.066.05.472.293.162.737-.515.737-.346 0-.71.347-.997.948-.249.522-.749 1.083-1.11 1.248-.666.304-.895 1.248-.38 1.566.154.095.28.385.283.644.01 1.027.405 1.225 1.393.693 1.296-.698 2.167-1.715 2.508-2.927.16-.569.412-1.11.561-1.201.15-.093.272-.406.272-.698 0-.292.24-.754.534-1.029.294-.274.622-.845.728-1.268.106-.424.399-.886.65-1.028.377-.213.393-.32.09-.623-.304-.302-.435-.275-.754.157-.38.514-1.248.463-1.248-.075 0-.693 1.526-2.006 2.666-2.293.67-.169 1.363-.481 1.54-.694.176-.213.494-.387.705-.387.21 0 .607-.22.88-.488.274-.268 1.013-.84 1.642-1.27.63-.431 1.66-1.224 2.289-1.763.944-.808 1.095-1.07.866-1.498-.464-.867-.32-1.42.69-2.653 1.568-1.913 4.534-3.018 3.452-1.286-.314.503-.293.635.15.96.374.273.46.552.313 1.016-.245.772-4.257 5.03-4.74 5.03-.187 0-.915.44-1.618.976-.703.537-1.442.976-1.642.977-.201 0-.782.391-1.29.868-.835.782-.907.973-.742 1.949.152.902.097 1.108-.33 1.24-2.025.624-3.29 1.927-2.99 3.08.084.319-.202 1.04-.706 1.784-.466.688-.849 1.382-.852 1.543-.006.362-2.456 2.912-2.798 2.912-.136 0-.71.313-1.274.696-1.298.881-1.73.878-2.07-.018zm18.659-20.39c.953-1.157 1.05-1.47.45-1.47-.761 0-2.318 1.921-1.897 2.342.323.323.599.156 1.447-.872zm23.709 13.195c0-.473.238-.761.836-1.009.46-.19.836-.456.836-.591 0-.135.143-.245.319-.245.175 0 .583-.252.905-.56.323-.308 1.402-1.256 2.399-2.108 2.891-2.47 3.623-3.205 3.623-3.635 0-.473 1.146-.985 1.489-.665.129.121.01.578-.264 1.016-.817 1.307-4.327 4.794-5.845 5.808-.778.52-1.584 1.15-1.791 1.4-.412.495-1.75 1.252-2.215 1.252-.16 0-.292-.298-.292-.663zm-38.373-5.924c-.096-.25-.03-.658.147-.905.847-1.187 2.022-3.31 2.177-3.934.34-1.369.903-1.716 2.467-1.52 1.116.139 1.502.082 1.79-.266.203-.244.51-.443.682-.442.173 0 1.38-1.107 2.684-2.46 1.302-1.355 2.995-2.947 3.762-3.54 2.31-1.788 3.17-2.686 3.35-3.5.093-.426.341-.917.551-1.091.21-.175.463-.685.562-1.135.195-.888.4-.997.915-.482.475.474.417 1.053-.222 2.247-.307.572-.558 1.201-.558 1.4 0 .492-5.387 5.69-6.313 6.089-.13.056-.901.88-1.715 1.83-.813.95-1.717 1.803-2.009 1.896-.526.167-1.52.938-3.174 2.467-.475.437-1.539 1.245-2.366 1.795-.827.55-1.562 1.227-1.635 1.504-.164.628-.86.658-1.095.047zm37.155-.297c-.543-.543.127-1.499 3.039-4.332 1.767-1.72 3.68-3.444 4.25-3.83.57-.386 2.268-1.896 3.774-3.354 2.086-2.02 2.787-2.884 2.938-3.622.117-.573.365-.97.605-.97.572 0 .708 2.006.177 2.607-.825.934-2.931 3-4.12 4.04-3.656 3.205-5.871 5.27-7.616 7.1-1.996 2.095-2.738 2.67-3.047 2.361zm-39.006-3.334c-.31-.31-.21-.997.216-1.463a92.34 92.34 0 0 1 1.394-1.463c.545-.562.99-1.11.99-1.216 0-.568 1.831-2.918 2.273-2.918.282 0 .834-.494 1.245-1.115.575-.87.913-1.115 1.536-1.115.752 0 .927.222.82 1.042-.024.19-1.48 1.803-3.237 3.586-1.756 1.783-3.194 3.411-3.194 3.62 0 .207-.37.569-.822.802-.938.486-.97.492-1.221.24zm40.039-7.775c-.278-.723.378-1.793 1.098-1.793.373 0 1.292-.562 2.168-1.324 1.764-1.536 3.2-2.578 3.553-2.578.135 0 .473-.25.75-.557.278-.307.616-.558.751-.558.295 0 2.733-2.47 2.733-2.768 0-.237 1.411-.93 1.57-.771.25.25-.853 1.917-2.2 3.326-1.4 1.466-3.732 3.26-4.714 3.628-.257.096-.508.527-.558.958-.078.68-.224.794-1.105.868-.563.047-1.234.326-1.506.627-.27.298-.644.542-.832.542-.187 0-.497.188-.687.418-.446.537-.81.531-1.021-.018zm-29.89-2.16c-.58-.58-.294-1.236.882-2.025 1.11-.745 2.517-1.898 4.562-3.738.477-.43 1.543-1.249 2.368-1.82 2.617-1.81 4.476-3.926 5.563-6.333.38-.84 1.214-1.023 1.481-.326.34.887.149 1.623-.792 3.04-.53.798-1.108 1.771-1.287 2.163-.179.393-.78.944-1.338 1.225-.556.281-1.513.894-2.127 1.36a33.029 33.029 0 0 1-1.95 1.374c-.46.289-1.409 1.005-2.108 1.592-.7.587-1.406 1.068-1.57 1.068-.163 0-.625.429-1.025.954-.891 1.168-2.223 1.902-2.66 1.465zm.773-4.207c-.262-.575-.24-.923.115-1.764.243-.576.518-1.424.613-1.884.094-.46.555-1.568 1.025-2.464.471-.898.747-1.733.616-1.861-.132-.128-.678-.274-1.215-.323-.86-.079-.983-.189-1.044-.925-.073-.883.143-1.14 6.16-7.386 1.255-1.303 2.642-2.996 3.081-3.762.89-1.552 2.003-2.622 2.742-2.637.753-.016.588.916-.334 1.88a15.662 15.662 0 0 0-1.508 1.923c-.378.585-1.67 2.094-2.871 3.353-2.464 2.583-4.071 4.887-3.943 5.654.081.488.116.49.67.039.535-.438 3.484-4.07 4.645-5.725.58-.826 3.278-2.675 3.904-2.675.711 0 1.318.314 1.318.682 0 .19-.71.835-1.578 1.433-2.905 2.006-8.016 7.388-8.317 8.758-.116.53-.377 1.216-.58 1.527-.21.318-.273.72-.148.924.161.26.441.066 1.009-.7.853-1.15 1.67-1.92 3.63-3.428a43.23 43.23 0 0 0 2.406-2.02c.625-.575 1.41-1.045 1.746-1.045.335 0 1.034-.314 1.553-.697 1.14-.84 1.83-.885 2.228-.142.227.423.189.72-.16 1.251-.418.639-.925.855-3.214 1.367-.401.09-1.235.654-1.853 1.254-.619.6-1.413 1.183-1.765 1.295-.887.281-6.647 6.145-7.359 7.492-.722 1.365-1.15 1.53-1.572.606zm31.438-3.694c-.534-.534.016-1.104 7.22-7.478 1.039-.92 2.318-2.268 2.842-2.996.946-1.315 1.555-1.643 1.809-.976.073.192.027.633-.103.98-.282.76-4.54 5.07-7.634 7.727-1.226 1.053-2.292 1.999-2.369 2.101-.143.193-1.27.828-1.468.828-.061 0-.195-.084-.297-.186zm4.79-7.86c-.434-.693-1.139-.77-1.631-.176-.191.23-.583.418-.87.418-.758 0-.657-1.082.19-2.045.632-.719.774-.763 1.565-.487 1.433.5 2.395.387 2.615-.307.106-.335.585-1 1.064-1.478 1.238-1.236 2.96-3.303 2.96-3.553 0-.384 1.052-.22 1.209.188.084.22-.194.836-.618 1.37-1.047 1.317-3.669 4.309-4.353 4.967l-1.16 1.117-.6.58zm-35.561-3.668c-.743-.298-.797-.867-.173-1.82.424-.646.421-.731-.043-1.244-.464-.513-.467-.585-.037-1.06.254-.28.461-.696.461-.923 0-.59 1.275-1.706 3.125-2.738 1.333-.742 1.708-1.13 2.3-2.382.388-.822.707-1.628.707-1.79 0-.163.102-.297.227-.297s.44-.407.7-.905c.26-.498.718-1.282 1.018-1.742.3-.46.745-1.189.988-1.62.342-.605.613-.763 1.193-.696 1.077.124 1.189 1.344.195 2.125-.733.577-1.665 1.836-2.307 3.117-.192.383-.661 1.25-1.043 1.925-1.512 2.68-.339 2.68 2.353 0 1.71-1.701 2.807-2.021 2.807-.818 0 .486-.796 1.288-2.223 2.237-1.175.784-2.41 1.81-3.775 3.137-.749.729-1.862 1.67-2.474 2.09-1.764 1.213-2.31 1.816-2.522 2.786-.206.944-.432 1.038-1.478.618zm3.814-5.136c1.935-1.221 1.926-1.938-.011-.923-.67.351-1.261.857-1.312 1.123-.123.639.032.615 1.322-.2zm29.44 3.011c-.103-.271.043-.702.357-1.045.293-.32.619-.866.723-1.21.136-.449.405-.628.942-.628 1.147 0 2.49-.856 4.759-3.032 1.613-1.548 2.145-1.912 2.438-1.67.565.47.45 1.244-.252 1.707-.345.228-1.505 1.259-2.578 2.292-1.076 1.036-2.616 2.19-3.434 2.575-.816.383-1.55.87-1.633 1.084-.206.538-1.106.488-1.321-.073zm-5.884-3.179c-.101-.163.485-.884 1.303-1.602 2.476-2.176 3.585-3.353 3.585-3.804 0-.58-.345-.54-1.115.129-.354.306-.867.557-1.141.557-1 0-.829-.61.49-1.734 2.629-2.243 4.747-4.602 4.923-5.484.208-1.042.662-1.117 1.022-.17.277.73.115 1.536-.308 1.536-.137 0-.249.275-.249.613 0 .477.075.538.335.278.532-.532 1.338-.406 1.338.21 0 .298-.157.645-.349.77-.191.126-.825.74-1.407 1.364-.974 1.045-1.032 1.196-.722 1.876.283.621.253.895-.189 1.716-.633 1.175-1.027 1.23-1.501.21-.332-.715-.377-.732-.672-.249-.7 1.148-4.095 4.08-4.723 4.08-.24 0-.52-.133-.62-.296zm5.938-6.34c.061-.182-.088-.33-.33-.33a.443.443 0 0 0-.442.44c0 .493.6.407.772-.11zm2.015-2.003a.28.28 0 0 0-.279-.279.28.28 0 0 0-.278.28.28.28 0 0 0 .278.278.28.28 0 0 0 .28-.279zm-39.504 7.895c-.58-.23-.395-1.207.274-1.455.76-.28 2.275-2.626 3.982-6.161.703-1.456 1.398-2.836 1.544-3.066.146-.23.413-.705.592-1.056.18-.35.523-.6.764-.554.67.127.695 1.315.045 2.194-.32.433-.582.907-.582 1.054 0 .288-1.096 2.458-2.233 4.424-.155.268-.525.989-.821 1.602-.97 2.006-2.61 3.395-3.565 3.018zm-7.678-1.941c-.686-.686.82-2.644 3.916-5.09.651-.515 1.184-1.128 1.184-1.361 0-.389.81-2.139 2.007-4.343.261-.48.48-1.35.488-1.932.007-.582.197-1.413.42-1.846.39-.753 1.385-1.267 1.871-.967.364.225.252 1.312-.196 1.905-.225.297-.41.94-.41 1.429 0 .488-.187 1.044-.417 1.235-.23.19-.418.5-.418.687 0 .188-.251.568-.558.845-.306.278-.557.851-.557 1.275 0 1.37-1.26 3.383-2.925 4.674-.858.667-1.87 1.701-2.248 2.3-.378.598-.8 1.087-.939 1.087-.139 0-.426.067-.638.148-.212.082-.473.061-.58-.046zm5.658-.81c0-.64.938-2.358 2.14-3.917 1.94-2.52 2.319-3.149 2.319-3.856 0-.385.461-1.613 1.026-2.728 1.35-2.67 1.462-2.81 1.937-2.415.482.4.493 1.488.018 1.97-.518.525-1.498 2.717-1.688 3.772-.088.492-.604 1.526-1.145 2.296-.541.77-.984 1.52-.984 1.668 0 .147-.173.368-.384.49-.21.123-.725.882-1.144 1.687-.596 1.146-.905 1.463-1.428 1.463-.415 0-.667-.162-.667-.43zm-9.878-4.569c-1.137-1.257-.086-3.947 2.185-5.591.901-.653 2.553-3.48 3.092-5.295.114-.384.364-.885.555-1.115.191-.23.425-.732.519-1.115.242-.987 1.415-2.362 1.808-2.119.6.371.333 1.797-.65 3.475-.537.915-.976 1.768-.977 1.896-.003.655-2.114 4.216-3.588 6.053-.526.656-.87 1.403-.87 1.895 0 1.001-.721 2.456-1.218 2.456-.202 0-.587-.243-.856-.54zm4.319-.14c-.4-.481-.214-.891 1.586-3.488.686-.99 1.43-2.431 1.653-3.205 1.236-4.274 1.264-4.332 2.066-4.332.746 0 .943.652.435 1.44-.23.358-.508 1.14-.618 1.739-.11.599-.369 1.414-.576 1.811-.208.398-.378.935-.379 1.194 0 .26-.136.554-.3.656-.164.101-.383.39-.488.643-.42 1.02-2.44 3.925-2.733 3.934-.173.005-.464-.171-.646-.391zm38.653-1.61c-.268-.336-.488-.725-.488-.864 0-.144-.556-.17-1.28-.062-1.244.187-1.273.174-1.077-.456.11-.356.336-.698.5-.76.165-.061.903-.676 1.641-1.367 1.42-1.328 1.877-2.322 1.356-2.95-.22-.265-.232-.6-.038-1.11.326-.859.378-.87 1.277-.281.798.523.954 2.046.269 2.615-.23.191-.418.578-.418.86 0 .282-.518 1.01-1.152 1.62l-1.15 1.105 1.011.423c.788.33 1.012.58 1.012 1.134 0 .9-.778.95-1.463.093zm-47.204-3.137c-.201-.525.487-2.098.918-2.098.61 0 2.178-2.16 2.965-4.083 1.206-2.948 1.754-3.86 2.321-3.86.742 0 .806.92.13 1.835-.322.435-.585 1.017-.585 1.294 0 .276-.25.97-.557 1.543-.307.572-.558 1.16-.558 1.305 0 .482-1.655 2.73-2.658 3.61-1.073.942-1.73 1.093-1.976.454zm-6.327-.054c-.661-.66.291-3.306 1.577-4.382.86-.72 2.083-2.61 2.274-3.514.113-.537.363-1.164.557-1.394.193-.23.441-.915.55-1.523.11-.608.391-1.478.627-1.933.236-.456.417-1.384.404-2.063-.02-.953.116-1.352.593-1.75.34-.283.774-.52.965-.525.413-.01.452 1.36.08 2.778-.142.536-.38 1.464-.531 2.061-.151.597-.392 1.162-.536 1.254-.144.093-.348.482-.454.865a21.195 21.195 0 0 1-.577 1.672c-.21.537-.454 1.419-.542 1.96-.09.558-.548 1.403-1.056 1.95-1.131 1.219-1.888 2.59-1.888 3.419 0 .353-.15.792-.334.976-.36.36-1.407.452-1.71.149zm4.688-1.213c-.28-.451.374-2.083 1.11-2.774.616-.58 1.373-1.953 2.46-4.467.231-.536.491-1.735.577-2.665.166-1.794.802-3.481 1.702-4.51.64-.732 1.058-.79 1.536-.213.46.553.212 1.387-.92 3.095-.748 1.132-.975 1.808-1.117 3.325-.098 1.047-.289 1.975-.425 2.063-.22.142-2.47 4.18-3.233 5.8-.304.647-1.37.865-1.69.346zm38.046-.826c-.243-.454-.17-.663.408-1.165.388-.337.704-.758.704-.937 0-.179.251-.552.558-.829.306-.277.557-.708.557-.957 0-.248.194-.728.43-1.066.33-.47.36-.747.13-1.177-.426-.796-1.296-.718-1.51.134-.225.895-.662.894-.887-.002-.223-.89.492-2.02 1.428-2.254 2.063-.518 3.424 1.728 2.081 3.435-.306.39-.557.942-.557 1.229 0 1.002-2.04 4.142-2.69 4.142-.196 0-.49-.25-.652-.553zm-45.8.088c-.445-.445-.096-1.186 1.165-2.474.744-.76 1.615-1.883 1.937-2.496 1.38-2.627 2.247-4.827 2.109-5.355-.098-.375.133-.884.69-1.518a4.347 4.347 0 0 0 1.02-2.196c.223-1.505.925-2.706 2.085-3.563 1.615-1.194 2.488-.398 1.143 1.042-1.24 1.328-1.892 2.529-2.116 3.903-.11.677-.437 1.618-.725 2.09-.289.473-.526 1.048-.529 1.278-.002.23-.38 1.156-.837 2.06-.458.902-.833 1.823-.833 2.045 0 .5-.804 1.586-2.76 3.724-1.433 1.567-1.932 1.877-2.349 1.46zm39.945-1.509c0-.319.424-1.103.942-1.742.517-.639 1.034-1.475 1.147-1.858.114-.383.388-.904.61-1.157.245-.28.37-.881.316-1.533-.088-1.069-.093-1.072-1.343-1.092-1.044-.017-1.268-.116-1.338-.594-.072-.485.11-.602 1.188-.764 1.617-.242 2.344-.008 2.675.863.34.893.02 3.621-.473 4.03-.209.173-.38.534-.38.8 0 .268-.25.805-.557 1.195-.306.39-.557.889-.557 1.11 0 .575-.917 1.322-1.625 1.322-.427 0-.605-.17-.605-.58zm-51.084-.91c-.197-.512.01-1.312.677-2.62.287-.563.522-1.17.522-1.349 0-.179.188-.481.418-.672.23-.19.418-.587.418-.88 0-.293.205-.846.456-1.229.267-.407.513-1.528.594-2.707.13-1.883.354-2.526 1.663-4.767.19-.324.347-.795.349-1.047a.719.719 0 0 1 .422-.618c.235-.09.418-.505.418-.95 0-1.934 2.184-4.736 3.031-3.889.517.518.36 1.165-.527 2.157-.462.518-.964 1.4-1.115 1.962-.15.561-.713 1.863-1.25 2.892-.615 1.18-.975 2.262-.975 2.929 0 1.212-.894 4.204-1.525 5.105-.234.335-.426.844-.426 1.132 0 .287-.19.924-.423 1.414-.232.49-.517 1.45-.633 2.132-.192 1.13-.288 1.249-1.074 1.326-.561.055-.919-.058-1.02-.322zm63.19-.863c-.522-.388-.507-.43.435-1.242.537-.463 1.07-.846 1.185-.852.115-.006.21-.545.21-1.196.004-2.84 1.169-4.373 2.28-3 .278.342.505.875.505 1.183 0 .806-1.794 3.642-2.941 4.65-1.145 1.005-.993.963-1.673.457zm-65.985-1.177c-.326-.325-.2-1.844.19-2.3.935-1.091 2.332-4.373 2.68-6.293.138-.766.524-2.271.857-3.344.333-1.073.73-2.452.884-3.066.355-1.415 1.31-3.438 2.007-4.25.588-.684 2.114-.878 2.114-.268 0 .198-.371.793-.825 1.324-.453.53-.83 1.153-.838 1.383-.007.23-.182.743-.39 1.14-.207.398-.466 1.2-.576 1.783-.109.583-.365 1.324-.57 1.646-.203.323-.454 1.108-.557 1.745-.102.638-.361 1.39-.575 1.673-.214.282-.394 1.077-.4 1.767-.006.69-.198 1.613-.426 2.052-.23.44-.417.956-.417 1.147 0 .192-.234.648-.52 1.013-.287.366-.611 1.074-.72 1.573-.239 1.092-1.357 1.836-1.918 1.275zm-4.215-.89c-.09-.285-.086-.72.007-.967.099-.256-.078-.768-.411-1.191-.523-.665-.584-1.111-.584-4.266 0-2.506.109-3.682.377-4.073.207-.303.452-1.472.543-2.598.168-2.063.34-2.463 1.811-4.194.668-.785.931-.915 1.545-.76.917.23.926.525.052 1.67-1.009 1.323-1.541 2.778-1.541 4.208 0 .695-.116 1.263-.257 1.263-.141 0-.337.366-.435.813-.192.876.074 2.81.387 2.81.222 0 1.05-2.39 1.424-4.114.142-.654.387-1.43.545-1.724.157-.294.286-.784.286-1.09 0-.304.286-.908.634-1.341a10.82 10.82 0 0 0 1.02-1.55c.682-1.345 1.372-1.886 2.407-1.886 1.268 0 1.596.72.654 1.434-1.92 1.457-3.321 3.58-3.321 5.034 0 .513-.172 1.18-.383 1.483-.21.302-.511 1.114-.669 1.804-.157.69-.55 2.246-.871 3.458-.322 1.212-.585 2.542-.585 2.954 0 1.046-.545 2.578-1.065 2.993-.634.507-1.381.427-1.57-.17zm34.313-4.684c-.102-.102-.186-.415-.186-.696 0-.57.962-.698 1.672-.223.362.242.346.335-.123.692-.581.444-1.066.525-1.363.227zm2.52-4.168c-.109-.109-.198-.45-.198-.76s-.278-.859-.617-1.22c-1.099-1.17.218-2.256 1.62-1.337.619.405.688.62.614 1.904-.07 1.212-.177 1.46-.653 1.529-.313.045-.657-.007-.766-.116z" style="fill:#000;stroke-width:.27868706" transform="translate(226.672 -92.9)"/></svg>